<?xml version="1.0" encoding="utf-8"?>
<!-- Generator: Adobe Illustrator 25.4.1, SVG Export Plug-In . SVG Version: 6.00 Build 0)  -->
<svg version="1.1" id="Layer_1" xmlns="http://www.w3.org/2000/svg" xmlns:xlink="http://www.w3.org/1999/xlink" x="0px" y="0px"
	 viewBox="0 0 1046.9 584" style="enable-background:new 0 0 1046.9 584;" xml:space="preserve">
<style type="text/css">
	.st0{display:none;opacity:0.5;}
	.st1{fill:#FFFFFF;}
	.st2{fill:url(#SVGID_1_);}
	.st3{fill:url(#SVGID_00000168114756956986165350000012047910188559548862_);}
	.st4{fill:url(#SVGID_00000018231996109773782010000015529155462893626507_);}
	.st5{display:none;}
	.st6{display:inline;}
	.st7{font-family:'OCRAStd';}
	.st8{font-size:21.8431px;}
	.st9{font-size:35.9475px;}
</style>
<path class="st0" d="M278.8,147.9c49-3.1,98.2-3.9,147.3-3.1c25.4,0.4,50.7,1.2,76.1,2.6c11,0.6,22.2,2.1,33.2,2
	c10.5-0.1,21.2-5.9,12.9-17.1c-6.3-8.5-16.7-14.8-25.4-20.6c-9.4-6.2-19.1-12.1-29.1-17.3c-10.3-5.4-21.4-10.2-30.8-17.1
	c-1.4-1-6.3-4.1-6-6.2c0.6-3.9,10-4.4,12.5-4.1c11.2,1.7,21.4,10.7,29.6,17.9c2,1.8,3.8,4.3,6.7,3.7c4-0.7,4.2-4.7,2.5-7.6
	c-2.3-3.8-8.1-7.4-11.6-10c-7.6-5.7-18.1-11-27.6-12.5c-9.9-1.6-26.9,4.8-19.6,18c5.5,10,20.5,15.9,30.1,20.8
	c11.4,5.9,22.5,11.9,33.3,18.8c9,5.7,30,19.1,29.2,23.3c-1,2.5-22.3-0.3-31.6-0.8c-12.9-0.8-25.9-1.4-38.8-1.9
	c-26.2-1-52.4-1.5-78.6-1.5c-53.4,0-106.8,1.9-160,7c-7.1,0.7-14.2,1.4-21.2,2.2c-3.8,0.4-20.7,3.8-22.7,2.8
	c-2.4-1.2-6.6-10.3-7.8-12.6c-1.7-3.2-4.6-8.2-3.8-11.9c1.4-7.3,15.6-12.1,21.5-14.4c11.1-4.4,22.8-7.5,34.4-10.4
	c26.4-6.5,53.3-10.9,80.1-14.8c23.1-3.4,47.8-3.9,70.4-9.5c8-2,23.7-7.9,19.5-18.9c-3.7-9.6-17.9-10.1-26.4-10.2
	c-25.5-0.4-51-0.1-76.4,1c-51.5,2.2-102.9,7.5-153.7,16.5C118.2,67,89.5,73.2,61.5,81.5c-3.8,1.1-13.1,2.4-12.4,7.9
	c1,7.4,12.1,1.7,15.9,0.6c7.8-2.3,15.6-4.4,23.5-6.4c90-22.6,184-31,276.6-30.2c9,0.1,29-1.8,29.8,4.5c0,9.8-50.2,11.7-56.9,12.6
	c-24,3.1-47.9,6.7-71.7,11.1C242,86.1,217,91,193.9,100.4c-8.9,3.6-21.5,8.9-24.9,18.9c-3.3,9.6,6.4,21.2,10.6,29.3
	c-30.5,4.4-60.8,10.2-90.4,18.5c-8.3,2.3-73.1,20.9-67.8,31.3c3.3,6.6,25.1-7,30.3-9.1c12.2-4.9,24.7-9,37.3-12.7
	c28.5-8.2,57.7-13.9,87-18.3C210.1,153.3,244.4,150,278.8,147.9"/>
<path class="st0" d="M994.7,96.7c-1.7-0.6-5.4,0.4-7.1,0.5c-6.1,0.4-12.2,0.7-18.4,1c-11.4,0.5-22.7,0.8-34.1,0.9
	c-27.3,0.4-54.5,0.3-81.8-0.3c-31.3-0.6-62.6-1.5-93.9-3.5c-6.7-0.4-13.3-0.9-19.9-1.5c-7.8-0.7-12.8-8.2-18.7-13.2
	c-10.3-8.7-19.1-15.3-31.4-6.6c-3.5,2.4-6.3,5.8-9.8,8.1c-2,1.4-2.1,2.2-4.4,2.4c-2.2,0.2-5.1-1.2-7.2-1.7
	c-7.4-1.9-14.8-4.1-21.8-7.2c-4.5-2-8.7-4.3-12.4-7.6c-1.5-1.4-2.2-3.3-4.7-3.3c-3.2,0-5.5,3.4-4.3,6.3
	c7.8,13.7,30.7,18.3,44.3,21.6c-9,9.5-17.6,19.4-25.8,29.5c-1.8,2.3-5.7,5.6-5.8,8.6c-0.2,4.9,4.9,5.6,8.1,3.1
	c7-5.5,12.7-15.6,18.7-22.4c4.1-4.7,8.3-10.8,13.3-14.5c3-2.1,3.9-1.7,7.5-1c2.7,0.5,5.5,1,8.2,1.4c6.2,1,12.4,1.9,18.6,2.7
	c6.6,0.8,15.3,0.1,20.4,4c11,8.4,20.2,21.3,29.4,31.6c7.4,8.3,14.6,16.9,22.5,24.8c2.2,2.2,10.7,9,10.1,12.6c-0.4,2.5-4,2.9-6.3,3.4
	c-10.7,2.4-22.6,1-33.4,0.5c-12.6-0.6-25.3-1.3-37.9-1.9c-26.8-1.3-53.7-2.3-80.5-3.1c-53.6-1.5-107.3-2-160.9-0.2
	c-51.7,1.7-103.9,4.8-154.9,14.1c-25.8,4.7-52.2,10.7-75.8,22.5c-3,1.5-28.4,15.3-15.3,18.5c3.8,0.9,8.4-4.1,11.5-6
	c5.7-3.5,11.9-6.3,18.1-8.9C305.6,192.8,359,188,409,184.4c54.7-3.9,109.6-4.9,164.5-4.4c52.6,0.5,105.3,2.4,157.8,5
	c12.1,0.6,24.1,1.4,36.2,1.7c9.1,0.3,20.2,0.9,28.7-3.2c13.5-6.7,4.4-19.3-2.9-26.9c-7.6-7.8-14.7-15.9-22-24
	c-8.8-9.9-17.8-19.7-27-29.3c48.8,4,97.9,4.8,146.8,5.1c24.4,0.1,48.8-0.1,73.2-1c9.4-0.3,18.9-0.4,28.2-1.5c1.3-0.2,3.4,0,4.6-0.8
	C1001.1,102.7,999.9,96.2,994.7,96.7 M688.5,86.5c2.9-2.6,8.5-8.3,12.8-8.1c6.1,0.2,14.2,9.6,18.4,13.4c-6.1-0.7-12.3-1.5-18.4-2.4
	c-2.5-0.4-5-0.8-7.6-1.2C692.4,87.9,687,87.7,688.5,86.5"/>
<path class="st0" d="M574.5,150.9c1.8-0.2,2.9-0.6,3.6-1.1c1.2-0.7,1.5-1.5,2.3-2.1c1.5-1.8,3.1-4.2,4.9-6.9
	c0.2,0.8,0.4,1.6,0.9,2.4c0.9,1.7,2.9,3.2,4.8,3.7c0.3,0.1,0.5,0,0.7,0.1c0.5,0.1,1,0.2,1.4,0.2c1.3-0.1,2.4-0.4,3.4-0.8
	c1.8-0.7,3.1-1.8,4.1-3c0.6,0.9,1.6,1.8,2.8,2.4c0.6,0.3,1.3,0.5,2.1,0.6c0.4,0,0.7,0.1,1.1,0.1c1.6,0,2.7-0.5,3.7-1.1
	c1.4-0.8,2.3-1.8,2.7-2.5c1.4-1.9,2-3.5,2.7-4.4c0.8-1,0.9-1,1.1-1c1.4-0.3,2.5-1,3.3-2c1-1.3,1.6-2.9,1.3-4.6
	c-0.2-1-0.7-1.8-1.3-2.5c-1.3-1.5-3.3-2.4-5.4-2c-0.2,0-0.4,0.1-0.6,0.1c0-0.4,0.1-0.7,0.1-1.1c0-1.1-0.1-2.4-1-4.1
	c-0.6-1.1-1.7-2.1-2.9-2.7c-0.6-0.3-1.2-0.5-1.7-0.6c-0.7-0.1-1.2-0.2-1.4-0.2c-0.6,0.1-1.1,0.2-1.6,0.3c-1.3,0.3-2.3,0.8-3.1,1.4
	c0-0.1,0-0.2,0-0.4c0-0.9-0.1-2.1-0.7-3.5c-0.6-1.3-2-2.8-3.6-3.4c-0.5-0.2-1-0.3-1.5-0.4c-0.4-0.1-0.7-0.1-0.9-0.1
	c-1.4,0.1-2.5,0.4-3.3,0.8c0-0.2,0-0.4,0-0.6c0-0.6,0-1.5-0.6-2.8c0-0.1,0-0.1-0.1-0.2c-0.6-1.4-2.7-3.1-4.5-3.2
	c-0.3,0-0.6-0.1-0.8-0.1l0,0c-3.4,0.3-3.7,1.4-4.6,1.9c-1.2,1.1-2.3,2.5-3.5,4.2c-1,1.4-2.1,3-3.3,4.8c-2.1,3.1-4.3,6.7-6.6,10.4
	c-6.3,10.3-12.4,20.8-12.4,20.9c-1.6,2.7-0.6,6.2,2.1,7.8c0.9,0.5,1.9,0.8,2.9,0.8c2,0,3.9-1,5-2.9c0,0,1-1.7,2.5-4.3
	c0.3-0.5,0.5-0.9,0.8-1.4C569.5,149,572.2,151.1,574.5,150.9"/>
<g>
	<path class="st1" d="M962.9,450.2h6.1v-349c-1.9,0.1-3.9,0.2-6.1,0.3V450.2z"/>
	<path class="st1" d="M943.7,450.2h8.7V101.8c-2,0.1-4,0.1-8.7,0.2V450.2z"/>
	<path class="st1" d="M918.9,450.2h8.7V102.4c-4.6,0-6.6,0.1-8.7,0.1V450.2z"/>
	<path class="st1" d="M896.6,102.5v347.6h8.7V102.5c-3.6,0-4.6,0-5.6,0C898.6,102.5,897.6,102.5,896.6,102.5"/>
	<path class="st1" d="M878,417.6h9.2V102.5c-2,0-4.1,0-9.2-0.1V417.6z"/>
	<path class="st1" d="M824.5,417.6h7.8V101.6c-2,0-4.1-0.1-7.8-0.2V417.6z"/>
	<path class="st1" d="M845.4,417.6h14.4V102.2c-4.7-0.1-9.5-0.2-14.4-0.3V417.6z"/>
	<path class="st1" d="M790.5,151.8c0.9,1,1.9,2,2.8,3c3,3.7,6.1,7.4,6.3,12.8c0.1,4.6-3.6,8.8-8.4,10.4c-0.2,0.1-0.4,0.1-0.6,0.2
		v239.4h18.4V100.9c-6-0.2-12.1-0.4-18.4-0.7V151.8z"/>
	<path class="st1" d="M763.6,180.7v236.9h9V180.8c-1.1,0-2.2,0-3.3,0C767.5,180.8,765.6,180.8,763.6,180.7"/>
	<path class="st1" d="M763.6,98.9v23.5c3.2,3.6,6.3,7,9,10.1V99.4C769.5,99.3,766.5,99.1,763.6,98.9"/>
	<path class="st1" d="M735.5,450.2h13.5V180.1c-2.7-0.1-10.3-0.3-13.5-0.5V450.2z"/>
	<path class="st1" d="M740.4,97.3c1.3,1.4,2.7,2.8,4,4.2c1.6,1.7,3.2,3.4,4.7,5.1V98C746.1,97.8,743.2,97.6,740.4,97.3"/>
	<path class="st1" d="M705.2,418.7h5.5V178.1c-1.8-0.1-3.7-0.2-5.5-0.3V418.7z"/>
	<path class="st1" d="M686.8,418.7h7V177.4c-3.3-0.1-5.1-0.2-7-0.2V418.7z"/>
	<path class="st1" d="M669,418.7h8.1V176.7c-1.8-0.1-3.7-0.1-8.1-0.2V418.7z"/>
	<path class="st1" d="M636.1,418.7h17.6V175.9c-5.7-0.2-11.6-0.4-17.6-0.6V418.7z"/>
	<path class="st1" d="M618,418.7h7V175c-3.9,0-5.5-0.1-7-0.1V418.7z"/>
	<path class="st1" d="M603.4,418.7h9.3V174.6c-6.2,0-7.7-0.1-9.3-0.1V418.7z"/>
	<path class="st1" d="M589.7,418.7h7.1V174.4c-3.9,0-5.5-0.1-7.1-0.1V418.7z"/>
	<path class="st1" d="M566.2,418.7h9.9V174.1c-3.3,0-6.6-0.1-9.9-0.1V418.7z"/>
	<path class="st1" d="M535.8,418.7h12.6V173.9c-7.6,0-10.1,0-12.6,0V418.7z"/>
	<path class="st1" d="M513.5,418.7h10V174c-3.3,0-6.7,0.1-10,0.1V418.7z"/>
	<path class="st1" d="M486.5,418.7h7.5V174.4c-2.5,0.1-5,0.1-7.5,0.2V418.7z"/>
	<path class="st1" d="M461.8,418.7h9.5V175c-3.2,0.1-6.3,0.2-9.5,0.4V418.7z"/>
	<path class="st1" d="M444.6,450.2h6V175.8c-2,0.1-4,0.2-6,0.3V450.2z"/>
	<path class="st1" d="M425.5,450.2h9.6V176.6c-3.2,0.2-6.4,0.3-9.6,0.5V450.2z"/>
	<path class="st1" d="M401.4,417.6H412V178.2c-5.8,0.2-8.3,0.3-10.6,0.5V417.6z"/>
	<path class="st1" d="M370.4,417.5h16.8V180.2c-7.6,0.4-12.2,0.9-16.8,1.4V417.5z"/>
	<path class="st1" d="M343.6,417.5h9.8V183.9c-5.2,0.3-7.5,0.6-9.8,0.9V417.5z"/>
	<path class="st1" d="M323.8,450.1h9.7V186.3c-3.3,0.5-6.5,1-9.7,1.6V450.1z"/>
	<path class="st1" d="M306.7,450.1h9.7v-261c-3.3,0.6-6.5,1.2-9.7,1.9V450.1z"/>
	<path class="st1" d="M276.8,450.1h12.1V196.3c-7.1,0.7-9.6,1.4-12.1,2.1V450.1z"/>
	<path class="st1" d="M258.9,450.1h7.5V201.7c-2.6,0.9-5.1,1.8-7.5,2.7V450.1z"/>
	<linearGradient id="SVGID_1_" gradientUnits="userSpaceOnUse" x1="1098.6527" y1="-104.4736" x2="-174.9872" y2="237.2754">
		<stop  offset="4.546958e-04" style="stop-color:#FDFDFD"/>
		<stop  offset="1" style="stop-color:#656565"/>
	</linearGradient>
	<path class="st2" d="M276.8,142.9c49-3.1,98.2-3.9,147.3-3.1c25.4,0.4,50.7,1.2,76.1,2.6c11,0.6,22.2,2.1,33.2,2
		c10.5-0.1,21.2-5.9,12.9-17.1c-6.3-8.5-16.7-14.8-25.4-20.6c-9.4-6.2-19.1-12.1-29.1-17.3C481.6,84,470.4,79.2,461,72.2
		c-1.4-1-6.3-4.1-6-6.2c0.6-3.9,10-4.4,12.5-4.1c11.2,1.7,21.4,10.7,29.6,17.9c2,1.8,3.8,4.3,6.7,3.7c4-0.7,4.2-4.7,2.5-7.6
		c-2.3-3.8-8.1-7.4-11.6-10c-7.6-5.7-18.1-11-27.6-12.5c-9.9-1.6-26.9,4.8-19.6,18c5.5,10,20.5,15.9,30.1,20.8
		c11.4,5.9,22.5,11.9,33.3,18.8c9,5.7,30,19.1,29.2,23.3c-1,2.5-22.3-0.3-31.6-0.8c-12.9-0.8-25.9-1.4-38.8-1.9
		c-26.2-1-52.4-1.5-78.6-1.5c-53.4,0-106.8,1.9-160,7c-7.1,0.7-14.2,1.4-21.2,2.2c-3.8,0.4-20.7,3.8-22.7,2.8
		c-2.4-1.2-6.6-10.3-7.8-12.6c-1.7-3.2-4.6-8.2-3.8-11.9c1.4-7.3,15.6-12.1,21.5-14.4c11.1-4.4,22.8-7.5,34.4-10.4
		c26.4-6.5,53.3-10.9,80.1-14.8c23.1-3.4,47.8-3.9,70.4-9.5c8-2,23.7-7.9,19.5-18.9c-3.7-9.6-17.9-10.1-26.4-10.2
		c-25.5-0.4-51-0.1-76.4,1c-51.5,2.2-102.9,7.5-153.7,16.5C116.2,62,87.5,68.2,59.5,76.5c-3.8,1.1-13.1,2.4-12.4,7.9
		c1,7.4,12.1,1.7,15.9,0.6c7.8-2.3,15.6-4.4,23.5-6.4c90-22.6,184-31,276.6-30.2c9,0.1,29-1.8,29.8,4.5c0,9.8-50.2,11.7-56.9,12.6
		c-24,3.1-47.9,6.7-71.7,11.1c-24.4,4.6-49.5,9.4-72.5,18.9c-8.9,3.6-21.5,8.9-24.9,18.9c-3.3,9.6,6.4,21.2,10.6,29.3
		c-30.5,4.4-60.8,10.2-90.4,18.5c-8.3,2.3-73.1,20.9-67.8,31.3c3.3,6.6,25.1-7,30.3-9.1c12.2-4.9,24.7-9,37.3-12.7
		c28.5-8.2,57.7-13.9,87-18.3C208.1,148.3,242.4,145,276.8,142.9"/>
	
		<linearGradient id="SVGID_00000097502054336017850710000014780468555279464894_" gradientUnits="userSpaceOnUse" x1="1327.6528" y1="-46.3022" x2="54.0129" y2="295.4467">
		<stop  offset="4.546958e-04" style="stop-color:#FDFDFD"/>
		<stop  offset="1" style="stop-color:#656565"/>
	</linearGradient>
	<path style="fill:url(#SVGID_00000097502054336017850710000014780468555279464894_);" d="M992.7,91.7c-1.7-0.6-5.4,0.4-7.1,0.5
		c-6.1,0.4-12.2,0.7-18.4,1c-11.4,0.5-22.7,0.8-34.1,0.9c-27.3,0.4-54.5,0.3-81.8-0.3c-31.3-0.6-62.6-1.5-93.9-3.5
		c-6.7-0.4-13.3-0.9-19.9-1.5c-7.8-0.7-12.8-8.2-18.7-13.2c-10.3-8.7-19.1-15.3-31.4-6.6c-3.5,2.4-6.3,5.8-9.8,8.1
		c-2,1.4-2.1,2.2-4.4,2.4c-2.2,0.2-5.1-1.2-7.2-1.7c-7.4-1.9-14.8-4.1-21.8-7.2c-4.5-2-8.7-4.3-12.4-7.6c-1.5-1.4-2.2-3.3-4.7-3.3
		c-3.2,0-5.5,3.4-4.3,6.3c7.8,13.7,30.7,18.3,44.3,21.6c-9,9.5-17.6,19.4-25.8,29.5c-1.8,2.3-5.7,5.6-5.8,8.6
		c-0.2,4.9,4.9,5.6,8.1,3.1c7-5.5,12.7-15.6,18.7-22.4c4.1-4.7,8.3-10.8,13.3-14.5c3-2.1,3.9-1.7,7.5-1c2.7,0.5,5.5,1,8.2,1.4
		c6.2,1,12.4,1.9,18.6,2.7c6.6,0.8,15.3,0.1,20.4,4c11,8.4,20.2,21.3,29.4,31.6c7.4,8.3,14.6,16.9,22.5,24.8
		c2.2,2.2,10.7,9,10.1,12.6c-0.4,2.5-4,2.9-6.3,3.4c-10.7,2.4-22.6,1-33.4,0.5c-12.6-0.6-25.3-1.3-37.9-1.9
		c-26.8-1.3-53.7-2.3-80.5-3.1c-53.6-1.5-107.3-2-160.9-0.2c-51.7,1.7-103.9,4.8-154.9,14.1c-25.8,4.7-52.2,10.7-75.8,22.5
		c-3,1.5-28.4,15.3-15.3,18.5c3.8,0.9,8.4-4.1,11.5-6c5.7-3.5,11.9-6.3,18.1-8.9C303.6,187.9,357,183,407,179.5
		c54.7-3.9,109.6-4.9,164.5-4.4c52.6,0.5,105.3,2.4,157.8,5c12.1,0.6,24.1,1.4,36.2,1.7c9.1,0.3,20.2,0.9,28.7-3.2
		c13.5-6.7,4.4-19.3-2.9-26.9c-7.6-7.8-14.7-15.9-22-24c-8.8-9.9-17.8-19.7-27-29.3c48.8,4,97.9,4.8,146.8,5.1
		c24.4,0.1,48.8-0.1,73.2-1c9.4-0.3,18.9-0.4,28.2-1.5c1.3-0.2,3.4,0,4.6-0.8C999.1,97.7,997.9,91.2,992.7,91.7 M686.5,81.5
		c2.9-2.6,8.5-8.3,12.8-8.1c6.1,0.2,14.2,9.6,18.4,13.4c-6.1-0.7-12.3-1.5-18.4-2.4c-2.5-0.4-5-0.8-7.6-1.2
		C690.4,82.9,685,82.8,686.5,81.5"/>
	
		<linearGradient id="SVGID_00000067947499192952052650000003824796189667978425_" gradientUnits="userSpaceOnUse" x1="1213.0509" y1="-44.9445" x2="-60.5891" y2="296.8044">
		<stop  offset="4.546958e-04" style="stop-color:#FDFDFD"/>
		<stop  offset="1" style="stop-color:#656565"/>
	</linearGradient>
	<path style="fill:url(#SVGID_00000067947499192952052650000003824796189667978425_);" d="M572.5,145.9c1.8-0.2,2.9-0.6,3.6-1.1
		c1.2-0.7,1.5-1.5,2.3-2.1c1.5-1.8,3.1-4.2,4.9-6.9c0.2,0.8,0.4,1.6,0.9,2.4c0.9,1.7,2.9,3.2,4.8,3.7c0.3,0.1,0.5,0,0.7,0.1
		c0.5,0.1,1,0.2,1.4,0.2c1.3-0.1,2.4-0.4,3.4-0.8c1.8-0.7,3.1-1.8,4.1-3c0.6,0.9,1.6,1.8,2.8,2.4c0.6,0.3,1.3,0.5,2.1,0.6
		c0.4,0,0.7,0.1,1.1,0.1c1.6,0,2.7-0.5,3.7-1.1c1.4-0.8,2.3-1.8,2.7-2.5c1.4-1.9,2-3.5,2.7-4.4c0.8-1,0.9-1,1.1-1
		c1.4-0.3,2.5-1,3.3-2c1-1.3,1.6-2.9,1.3-4.6c-0.2-1-0.7-1.8-1.3-2.5c-1.3-1.5-3.3-2.4-5.4-2c-0.2,0-0.4,0.1-0.6,0.1
		c0-0.4,0.1-0.7,0.1-1.1c0-1.1-0.1-2.4-1-4.1c-0.6-1.1-1.7-2.1-2.9-2.7c-0.6-0.3-1.2-0.5-1.7-0.6c-0.7-0.1-1.2-0.2-1.4-0.2
		c-0.6,0.1-1.1,0.2-1.6,0.3c-1.3,0.3-2.3,0.8-3.1,1.4c0-0.1,0-0.2,0-0.4c0-0.9-0.1-2.1-0.7-3.5c-0.6-1.3-2-2.8-3.6-3.4
		c-0.5-0.2-1-0.3-1.5-0.4c-0.4-0.1-0.7-0.1-0.9-0.1c-1.4,0.1-2.5,0.4-3.3,0.8c0-0.2,0-0.4,0-0.6c0-0.6,0-1.5-0.6-2.8
		c0-0.1,0-0.1-0.1-0.2c-0.6-1.4-2.7-3.1-4.5-3.2c-0.3,0-0.6-0.1-0.8-0.1l0,0c-3.4,0.3-3.7,1.4-4.6,1.9c-1.2,1.1-2.3,2.5-3.5,4.2
		c-1,1.4-2.1,3-3.3,4.8c-2.1,3.1-4.3,6.7-6.6,10.4c-6.3,10.3-12.4,20.8-12.4,20.9c-1.6,2.7-0.6,6.2,2.1,7.8c0.9,0.5,1.9,0.8,2.9,0.8
		c2,0,3.9-1,5-2.9c0,0,1-1.7,2.5-4.3c0.3-0.5,0.5-0.9,0.8-1.4C567.5,144,570.3,146.1,572.5,145.9"/>
	<path class="st1" d="M346.4,471.8c0,1.9-0.8,3-3,3c-2.1,0-3-1.1-3-3v-43h19.6c2.7,0,4.7,0.4,6.8,2.4c2.5,2.4,2.8,4.6,2.8,7.7v8
		c0,3-0.2,5.1-2.4,7.6c-2.3,2.6-4.7,2.8-7.9,2.8h-12.9V471.8z M346.4,451.5h13.1c3.5,0,4.3-0.9,4.3-4.3v-8.3c0-3.4-0.8-4.3-4.3-4.3
		h-13.1V451.5z"/>
	<path class="st1" d="M400.6,459.7c-1.5,0-3-0.8-3-3c0-2.1,1.4-3,3-3h11.6v11.6c0,5.7-3.8,9.3-9.5,9.3h-10.2c-2.7,0-4.7-0.5-6.8-2.4
		c-2.4-2.1-2.8-4.3-2.8-7.3v-14.8c0-3.8,0.8-5.7,3.1-8.6l7-8.9c2.4-3,4.4-4,8.3-4h7.9c1.5,0,3,0.8,3,3c0,2.1-1.4,3-3,3h-7.1
		c-3.3,0-3-0.1-5,2.4l-6.4,8.2c-1.8,2.3-1.8,4.8-1.8,7.7v11.6c0,3.2,0.7,4.3,4.1,4.3h9.4c2.1,0,3.9-0.5,3.9-3.1v-6H400.6z"/>
	<path class="st1" d="M495.4,463.2c1.2,1.5,2.1,2.9,2.1,4.9c0,4.4-3.4,6.7-7.5,6.7h-13c-2.2,0-4.2-0.4-6-1.9
		c-1.6-1.3-2.8-3.4-2.8-5.5c0-1.9,1.1-3.5,3.1-3.5c1.7,0,2.8,1.4,2.8,3c0,1.8,0.9,2,2.6,2h12.8c0.5,0,2,0.2,2-0.7
		c0-0.5-0.8-1.4-1.1-1.7l-20.3-26.1c-1.2-1.6-1.9-2.8-1.9-4.9c0-2.4,1.1-4.4,3.1-5.7c1.7-1.1,3-1.1,4.9-1.1h12.5
		c2.2,0,4.1,0.5,5.9,1.9c1.5,1.4,2.8,3.5,2.8,5.6c0,1.9-0.9,3.4-3.1,3.4c-1.8,0-2.8-1.1-2.8-2.8c0-2-1-2.3-2.8-2.3h-12.5
		c-0.6,0-2-0.2-2,0.8c0,0.5,0.7,1.2,0.9,1.6L495.4,463.2z"/>
	<path class="st1" d="M516.7,434.7v2.1c0,1.9-0.8,3-3,3c-2.1,0-3-1.1-3-3v-8H540v8c0,1.9-0.8,3-3,3c-2.1,0-3-1.1-3-3v-2.1h-5.7v37.1
		c0,1.9-0.8,3-3,3c-2.1,0-3-1.1-3-3v-37.1H516.7z"/>
	<path class="st1" d="M563,474.8c-3,0-5.3-0.7-7.3-3c-2-2.2-2.2-4.3-2.2-7v-33c0-1.9,0.8-3,3-3c2.1,0,3,1.1,3,3v33
		c0,3.3,1,4.1,3.7,4.1h10.1c2.7,0,3.7-0.8,3.7-4.1v-33c0-1.9,0.8-3,3-3c2.1,0,3,1.1,3,3v33c0,2.7-0.3,4.8-2.2,7
		c-2.1,2.3-4.4,3-7.3,3H563z"/>
	<path class="st1" d="M601.8,434.7h-2.2c-2,0-3.6-0.7-3.6-3c0-2.1,1.6-3,3.4-3h9.9c4.6,0,6.9,1.9,8.9,5.9l5.2,10.4
		c1.2,2.4,1.8,4.1,1.8,6.9c0,2.4-0.7,4.4-1.7,6.5l-5.4,10.8c-2.1,4.2-4.7,5.6-9.3,5.6H599c-1.5,0-3-0.8-3-3c0-2.1,1.4-3,3-3h2.8
		V434.7z M607.7,468.9h1.1c2.5,0,3.1-0.3,4.1-2.5l5.2-10.5c0.6-1.4,1.1-2.4,1.1-3.8c0-2-0.7-3.1-1.5-4.8l-4.9-10
		c-1.2-2.5-1.8-2.5-4.5-2.5h-0.7V468.9z"/>
	<path class="st1" d="M656.2,468.9h8.7c1.5,0,3,0.8,3,3c0,2.1-1.4,3-3,3h-23.3c-1.5,0-3-0.8-3-3c0-2.1,1.4-3,3-3h8.7v-34.2h-8.7
		c-1.5,0-3-0.8-3-3c0-2.1,1.4-3,3-3h23.3c1.5,0,3,0.8,3,3c0,2.1-1.4,3-3,3h-8.7V468.9z"/>
	<path class="st1" d="M708.9,445.4c1.1,2.3,1.5,4,1.5,6.6c0,2.8-0.8,4.6-2,7l-5.4,10.9c-1.4,2.8-3.8,4.9-7.2,4.9
		c-3.4,0-5.8-2.1-7.2-4.9l-5.4-10.9c-1.2-2.4-1.9-4.2-1.9-7c0-2.5,0.4-4.3,1.5-6.6l5.9-11.8c1.4-2.8,3.8-4.8,7.2-4.8
		c3.3,0,5.7,2.1,7.2,4.8L708.9,445.4z M697.8,436.5c-0.5-0.9-0.8-1.8-2-1.8c-1.2,0-1.5,0.8-2,1.8l-5.3,10.7
		c-0.9,1.7-1.4,2.8-1.4,4.8c0,1.5,0.4,2.6,1,3.9l5.7,11.2c0.4,0.8,0.8,1.8,2,1.8c1.2,0,1.6-0.9,2-1.8l5.7-11.2c0.7-1.3,1-2.4,1-3.9
		c0-2-0.5-3.1-1.4-4.8L697.8,436.5z"/>
	<path class="st1" d="M784,468.9h8.7c1.5,0,3,0.8,3,3c0,2.1-1.4,3-3,3h-23.3c-1.5,0-3-0.8-3-3c0-2.1,1.4-3,3-3h8.7v-34.2h-8.7
		c-1.5,0-3-0.8-3-3c0-2.1,1.4-3,3-3h23.3c1.5,0,3,0.8,3,3c0,2.1-1.4,3-3,3H784V468.9z"/>
	<path class="st1" d="M832.3,431.8c0-1.9,0.8-3,3-3c2.1,0,3,1.1,3,3v43h-7.8L815,439.3v-0.1h-0.1v32.5c0,1.9-0.8,3-3,3
		c-2.1,0-3-1.1-3-3v-43h7.8l15.4,35.9h-0.1h0.1L832.3,431.8z"/>
	<path class="st1" d="M867.5,474.8c-4.4,0-7-1.8-8.9-5.6l-5.4-11c-1-2-1.6-3.9-1.6-6.2c0-2.6,0.5-4.2,1.7-6.6l5.4-10.9
		c2-4.1,4.6-5.7,9.1-5.7h10.1c1.3,0,3,0.7,3,3c0,2.1-1.6,3-3,3H868c-2.5,0-3,0.2-4.1,2.5l-5.1,10.3c-0.8,1.6-1.2,2.7-1.2,4.5
		c0,1.7,0.5,2.7,1.2,4.1l5,10.2c1.2,2.4,1.8,2.6,4.4,2.6h9.6c1.3,0,3,0.7,3,3c0,2.1-1.6,3-3,3H867.5z"/>
</g>
<text transform="matrix(1 0 0 1 20.001 565.5935)" class="st5"><tspan x="0" y="0" class="st6 st7 st8">•</tspan><tspan x="6.2" y="0" class="st6 st7 st9"> art </tspan><tspan x="62.4" y="0" class="st6 st7 st8">•</tspan><tspan x="68.5" y="0" class="st6 st7 st9"> architecture </tspan><tspan x="264.8" y="0" class="st6 st7 st8">•</tspan><tspan x="271" y="0" class="st6 st7 st9"> interior design </tspan><tspan x="504.7" y="0" class="st6 st7 st8">•</tspan></text>
</svg>
